<?xml version="1.0" standalone="no"?>
<!DOCTYPE svg PUBLIC "-//W3C//DTD SVG 20010904//EN"
 "http://www.w3.org/TR/2001/REC-SVG-20010904/DTD/svg10.dtd">
<svg version="1.0" xmlns="http://www.w3.org/2000/svg"
 width="686.000000pt" height="543.000000pt" viewBox="0 0 686.000000 543.000000"
 preserveAspectRatio="xMidYMid meet">

<g transform="translate(0.000000,543.000000) scale(0.100000,-0.100000)"
fill="#000000" stroke="none">
<path d="M20 2710 l0 -2710 3415 0 3415 0 0 2710 0 2710 -3415 0 -3415 0 0
-2710z m3335 1534 c23 -9 46 -60 39 -88 -13 -55 -10 -54 -399 -58 -360 -3
-360 -3 -408 -28 -67 -34 -122 -97 -141 -161 -30 -98 -17 -147 78 -313 111
-194 111 -245 -5 -446 -43 -74 -75 -143 -82 -175 -22 -108 31 -224 131 -282
l47 -28 368 -5 369 -5 25 -29 c27 -32 25 -66 -5 -99 -15 -17 -46 -18 -511 -15
-488 3 -497 3 -537 25 -50 27 -110 92 -135 147 -22 49 -25 137 -5 193 8 21 71
137 140 257 72 124 126 228 126 243 0 15 -55 120 -128 248 -71 122 -134 237
-140 255 -47 134 43 313 178 355 36 11 142 14 512 14 256 1 474 -2 483 -5z
m1200 -29 c71 -36 118 -94 141 -173 28 -95 12 -156 -87 -325 -158 -272 -179
-312 -179 -341 0 -20 41 -100 122 -240 68 -116 131 -236 141 -266 43 -126 -18
-267 -146 -337 -29 -16 -76 -18 -529 -21 -489 -3 -498 -2 -518 18 -20 20 -26
54 -14 84 15 38 40 41 409 46 359 5 360 5 408 30 87 44 139 133 139 235 0 71
-11 100 -90 238 -111 192 -110 236 6 439 32 57 62 112 66 123 42 114 10 243
-77 309 -78 60 -81 60 -475 66 -345 5 -364 6 -378 24 -20 28 -17 69 7 100 l21
27 487 -3 487 -3 59 -30z m-420 -219 c109 -50 171 -156 162 -276 -4 -69 -12
-89 -85 -212 -52 -88 -78 -104 -130 -82 -51 21 -57 54 -26 132 20 50 25 78 22
114 -7 66 -52 136 -108 168 l-45 25 -475 3 -475 3 -55 -28 c-74 -38 -112 -93
-118 -172 -3 -44 1 -69 17 -106 34 -77 25 -125 -27 -143 -52 -18 -81 5 -145
116 -63 110 -80 172 -66 248 19 99 92 190 177 220 29 10 176 13 682 13 l645 1
50 -24z m-763 -223 c26 -29 30 -60 14 -91 -19 -36 -33 -42 -102 -42 -30 0 -68
-7 -84 -15 -56 -29 -77 -113 -44 -176 20 -40 20 -95 0 -143 -47 -113 13 -196
142 -196 62 0 83 -12 96 -57 8 -26 -16 -78 -39 -87 -26 -10 -186 -7 -226 4
-86 24 -151 97 -171 191 -10 51 -9 63 11 120 34 99 35 112 10 160 -17 33 -23
60 -23 109 0 75 22 126 76 176 59 56 82 63 209 64 98 0 118 -3 131 -17z m402
3 c48 -20 107 -75 127 -121 25 -55 25 -156 -1 -214 -11 -24 -20 -53 -20 -66 0
-13 9 -42 20 -66 28 -63 26 -150 -4 -215 -44 -95 -124 -134 -273 -134 -86 0
-96 2 -118 25 -31 30 -32 71 -3 102 17 18 32 23 74 23 138 0 188 69 145 200
l-22 67 20 61 c25 74 26 105 5 142 -26 43 -64 60 -133 60 -52 0 -66 4 -86 25
-31 30 -33 77 -5 105 18 18 33 20 130 20 71 0 122 -5 144 -14z m-155 -230 c27
-25 28 -79 2 -105 -28 -28 -69 -33 -214 -29 -146 4 -167 14 -167 79 0 29 6 42
27 59 26 20 37 21 179 18 133 -3 155 -5 173 -22z m-805 -227 c31 -25 36 -81 9
-119 -27 -37 -25 -152 3 -205 25 -47 85 -93 140 -105 21 -5 235 -10 475 -10
483 0 507 3 568 62 72 71 88 157 47 255 -31 74 -23 113 26 134 61 25 93 -5
174 -160 36 -69 39 -81 39 -155 0 -64 -5 -90 -22 -122 -35 -66 -70 -101 -131
-131 l-57 -28 -645 0 -645 0 -52 24 c-102 45 -164 144 -165 258 0 60 4 76 48
161 79 154 126 189 188 141z m801 -4 c29 -28 32 -70 9 -103 -15 -21 -21 -22
-181 -22 -141 0 -169 3 -185 17 -25 23 -24 81 4 110 21 22 27 23 175 23 150 0
155 -1 178 -25z m-2378 -1199 c17 -20 23 -39 23 -72 l0 -44 -55 0 c-54 0 -55
1 -55 28 0 35 -6 41 -31 35 -18 -5 -19 -15 -19 -149 l0 -144 24 0 c21 0 25 5
28 38 l3 37 50 0 50 0 3 -51 c2 -39 -2 -56 -18 -77 -21 -26 -25 -27 -118 -27
-103 0 -113 3 -131 37 -15 29 -15 343 0 377 17 37 46 46 138 42 77 -2 86 -5
108 -30z m431 20 c16 -8 32 -23 36 -31 3 -9 6 -97 6 -196 0 -226 4 -219 -140
-219 -145 0 -140 -7 -140 223 1 228 2 230 133 235 53 2 84 -1 105 -12z m326 8
c14 -5 16 -32 16 -190 0 -177 1 -184 20 -184 19 0 20 7 20 184 0 201 -1 196
60 196 62 0 60 6 60 -210 0 -184 -1 -199 -21 -224 -20 -25 -25 -26 -118 -26
-141 0 -135 -9 -139 243 -3 157 0 202 10 208 15 10 70 12 92 3z m1052 -27 c23
-27 24 -33 24 -198 0 -165 -6 -202 -34 -221 -6 -4 -54 -8 -106 -8 -101 0 -111
3 -129 37 -15 29 -15 343 0 377 17 37 46 46 137 43 78 -2 85 -4 108 -30z m452
8 l27 -23 3 -206 3 -206 -60 0 -61 0 0 184 c0 148 -3 185 -14 189 -8 3 -17 3
-20 0 -3 -4 -6 -89 -6 -190 l0 -183 -55 0 -55 0 0 201 c0 123 4 208 11 220 15
28 42 36 126 37 63 0 77 -3 101 -23z m1505 13 c44 -23 46 -34 47 -245 l0 -203
-60 0 -60 0 0 70 c0 68 -1 70 -25 70 -24 0 -25 -2 -25 -70 l0 -70 -55 0 -55 0
0 203 c0 210 2 223 44 244 26 14 164 15 189 1z m867 -16 c24 -29 32 -111 28
-287 l-3 -140 -57 -3 -58 -3 0 71 c0 68 -1 70 -25 70 -24 0 -25 -2 -25 -70 l0
-70 -60 0 -60 0 0 198 c0 258 4 264 158 259 73 -2 86 -5 102 -25z m-3270 -4
c17 -19 20 -35 20 -114 0 -51 -3 -100 -6 -109 -10 -25 -58 -45 -109 -45 l-45
0 0 -80 0 -80 -55 0 -55 0 0 225 0 225 115 0 c105 0 116 -2 135 -22z m1659
-108 l15 -125 17 114 c10 62 20 120 23 127 4 9 22 14 55 14 l49 0 11 -62 c5
-35 13 -87 17 -116 4 -29 8 -51 11 -49 2 2 8 44 14 93 16 142 11 134 74 134
42 0 55 -4 55 -15 0 -15 -57 -374 -65 -412 -5 -21 -11 -23 -70 -23 -59 0 -65
2 -70 23 -4 19 -22 130 -26 162 -1 6 -9 -33 -18 -85 l-16 -95 -68 -3 c-37 -2
-67 1 -67 5 0 5 -11 76 -25 158 -13 83 -27 181 -31 218 l-7 68 54 -3 54 -3 14
-125z m1091 -49 l0 -180 53 -3 c46 -3 52 -6 55 -27 2 -12 1 -34 -2 -47 -6 -24
-8 -25 -114 -22 l-107 3 -3 228 -2 227 60 0 60 0 0 -179z m-1392 -68 l3 -43
-125 0 -126 0 0 38 c0 21 3 42 7 46 4 3 59 5 122 4 l116 -3 3 -42z"/>
<path d="M1550 1915 c0 -138 1 -145 20 -145 19 0 20 7 20 145 0 138 -1 145
-20 145 -19 0 -20 -7 -20 -145z"/>
<path d="M2900 1915 l0 -145 30 0 30 0 0 145 0 145 -30 0 -30 0 0 -145z"/>
<path d="M4880 1997 c0 -71 3 -77 31 -70 16 5 19 14 19 69 0 62 -1 64 -25 64
-24 0 -25 -2 -25 -63z"/>
<path d="M5730 1995 c0 -63 1 -65 25 -65 24 0 25 2 25 65 0 63 -1 65 -25 65
-24 0 -25 -2 -25 -65z"/>
<path d="M2460 2000 c0 -57 1 -60 25 -60 24 0 25 3 25 60 0 57 -1 60 -25 60
-24 0 -25 -3 -25 -60z"/>
</g>
</svg>
